<svg id="visual" viewBox="0 0 900 600" width="900" height="600" xmlns="http://www.w3.org/2000/svg" xmlns:xlink="http://www.w3.org/1999/xlink" version="1.1"><path d="M0 503L7.8 485.8C15.7 468.7 31.3 434.3 47.2 428.5C63 422.7 79 445.3 94.8 444.8C110.7 444.3 126.3 420.7 142 418C157.7 415.3 173.3 433.7 189.2 450.8C205 468 221 484 236.8 488.8C252.7 493.7 268.3 487.3 284.2 483.3C300 479.3 316 477.7 331.8 479.7C347.7 481.7 363.3 487.3 379 482C394.7 476.7 410.3 460.3 426.2 454.2C442 448 458 452 473.8 449.3C489.7 446.7 505.3 437.3 521 430.7C536.7 424 552.3 420 568.2 422.7C584 425.3 600 434.7 615.8 445.5C631.7 456.3 647.3 468.7 663.2 468.5C679 468.3 695 455.7 710.8 450.3C726.7 445 742.3 447 758 444.3C773.7 441.7 789.3 434.3 805.2 442.5C821 450.7 837 474.3 852.8 476.3C868.7 478.3 884.3 458.7 892.2 448.8L900 439L900 601L892.2 601C884.3 601 868.7 601 852.8 601C837 601 821 601 805.2 601C789.3 601 773.7 601 758 601C742.3 601 726.7 601 710.8 601C695 601 679 601 663.2 601C647.3 601 631.7 601 615.8 601C600 601 584 601 568.2 601C552.3 601 536.7 601 521 601C505.3 601 489.7 601 473.8 601C458 601 442 601 426.2 601C410.3 601 394.7 601 379 601C363.3 601 347.7 601 331.8 601C316 601 300 601 284.2 601C268.3 601 252.7 601 236.8 601C221 601 205 601 189.2 601C173.3 601 157.7 601 142 601C126.3 601 110.7 601 94.8 601C79 601 63 601 47.2 601C31.3 601 15.7 601 7.8 601L0 601Z" fill="#4facf7"></path><path d="M0 479L7.8 474.7C15.7 470.3 31.3 461.7 47.2 457.8C63 454 79 455 94.8 459.5C110.7 464 126.3 472 142 465.8C157.7 459.7 173.3 439.3 189.2 443.2C205 447 221 475 236.8 475C252.7 475 268.3 447 284.2 446.5C300 446 316 473 331.8 483.2C347.7 493.3 363.3 486.7 379 487.8C394.7 489 410.3 498 426.2 501.5C442 505 458 503 473.8 489C489.7 475 505.3 449 521 447.2C536.7 445.3 552.3 467.7 568.2 476.7C584 485.7 600 481.3 615.8 473.5C631.7 465.7 647.3 454.3 663.2 454.7C679 455 695 467 710.8 467C726.7 467 742.3 455 758 453.5C773.7 452 789.3 461 805.2 459.2C821 457.3 837 444.7 852.8 444.3C868.7 444 884.3 456 892.2 462L900 468L900 601L892.2 601C884.3 601 868.7 601 852.8 601C837 601 821 601 805.2 601C789.3 601 773.7 601 758 601C742.3 601 726.7 601 710.8 601C695 601 679 601 663.2 601C647.3 601 631.7 601 615.8 601C600 601 584 601 568.2 601C552.3 601 536.7 601 521 601C505.3 601 489.7 601 473.8 601C458 601 442 601 426.2 601C410.3 601 394.7 601 379 601C363.3 601 347.7 601 331.8 601C316 601 300 601 284.2 601C268.3 601 252.7 601 236.8 601C221 601 205 601 189.2 601C173.3 601 157.7 601 142 601C126.3 601 110.7 601 94.8 601C79 601 63 601 47.2 601C31.3 601 15.7 601 7.8 601L0 601Z" fill="#78b9f9"></path><path d="M0 504L7.8 506.3C15.7 508.7 31.3 513.3 47.2 515.5C63 517.7 79 517.3 94.8 509.2C110.7 501 126.3 485 142 485.2C157.7 485.3 173.3 501.7 189.2 508.3C205 515 221 512 236.8 511C252.7 510 268.3 511 284.2 507.3C300 503.7 316 495.3 331.8 485.3C347.7 475.3 363.3 463.7 379 458.3C394.7 453 410.3 454 426.2 457.3C442 460.7 458 466.3 473.8 470.3C489.7 474.3 505.3 476.7 521 473.7C536.7 470.7 552.3 462.3 568.2 459.8C584 457.3 600 460.7 615.8 460.8C631.7 461 647.3 458 663.2 456.8C679 455.7 695 456.3 710.8 459C726.7 461.7 742.3 466.3 758 476.2C773.7 486 789.3 501 805.2 503.2C821 505.3 837 494.7 852.8 492.3C868.7 490 884.3 496 892.2 499L900 502L900 601L892.2 601C884.3 601 868.7 601 852.8 601C837 601 821 601 805.2 601C789.3 601 773.7 601 758 601C742.3 601 726.7 601 710.8 601C695 601 679 601 663.2 601C647.3 601 631.7 601 615.8 601C600 601 584 601 568.2 601C552.3 601 536.7 601 521 601C505.3 601 489.7 601 473.8 601C458 601 442 601 426.2 601C410.3 601 394.7 601 379 601C363.3 601 347.7 601 331.8 601C316 601 300 601 284.2 601C268.3 601 252.7 601 236.8 601C221 601 205 601 189.2 601C173.3 601 157.7 601 142 601C126.3 601 110.7 601 94.8 601C79 601 63 601 47.2 601C31.3 601 15.7 601 7.8 601L0 601Z" fill="#98c6fa"></path><path d="M0 539L7.8 533.7C15.7 528.3 31.3 517.7 47.2 515.8C63 514 79 521 94.8 523.7C110.7 526.3 126.3 524.7 142 519.8C157.7 515 173.3 507 189.2 501.2C205 495.3 221 491.7 236.8 498.3C252.7 505 268.3 522 284.2 520.8C300 519.7 316 500.3 331.8 489.2C347.7 478 363.3 475 379 482.2C394.7 489.3 410.3 506.7 426.2 513.3C442 520 458 516 473.8 507.3C489.7 498.7 505.3 485.3 521 482.3C536.7 479.3 552.3 486.7 568.2 493.5C584 500.3 600 506.7 615.8 505C631.7 503.3 647.3 493.7 663.2 492C679 490.3 695 496.7 710.8 499.3C726.7 502 742.3 501 758 498.2C773.7 495.3 789.3 490.7 805.2 494.8C821 499 837 512 852.8 509C868.7 506 884.3 487 892.2 477.5L900 468L900 601L892.2 601C884.3 601 868.7 601 852.8 601C837 601 821 601 805.2 601C789.3 601 773.7 601 758 601C742.3 601 726.7 601 710.8 601C695 601 679 601 663.2 601C647.3 601 631.7 601 615.8 601C600 601 584 601 568.2 601C552.3 601 536.7 601 521 601C505.3 601 489.7 601 473.8 601C458 601 442 601 426.2 601C410.3 601 394.7 601 379 601C363.3 601 347.7 601 331.8 601C316 601 300 601 284.2 601C268.3 601 252.7 601 236.8 601C221 601 205 601 189.2 601C173.3 601 157.7 601 142 601C126.3 601 110.7 601 94.8 601C79 601 63 601 47.2 601C31.3 601 15.7 601 7.8 601L0 601Z" fill="#b4d4fc"></path><path d="M0 537L7.8 536.2C15.7 535.3 31.3 533.7 47.2 536.2C63 538.7 79 545.3 94.8 542.3C110.7 539.3 126.3 526.7 142 523.8C157.7 521 173.3 528 189.2 532C205 536 221 537 236.8 531.5C252.7 526 268.3 514 284.2 511C300 508 316 514 331.8 514.2C347.7 514.3 363.3 508.7 379 504.5C394.7 500.3 410.3 497.7 426.2 500.5C442 503.3 458 511.7 473.8 518.2C489.7 524.7 505.3 529.3 521 527C536.7 524.7 552.3 515.3 568.2 511C584 506.7 600 507.3 615.8 513.5C631.7 519.7 647.3 531.3 663.2 529.5C679 527.7 695 512.3 710.8 513.3C726.7 514.3 742.3 531.7 758 539.3C773.7 547 789.3 545 805.2 541.5C821 538 837 533 852.8 526C868.7 519 884.3 510 892.2 505.5L900 501L900 601L892.2 601C884.3 601 868.7 601 852.8 601C837 601 821 601 805.2 601C789.3 601 773.7 601 758 601C742.3 601 726.7 601 710.8 601C695 601 679 601 663.2 601C647.3 601 631.7 601 615.8 601C600 601 584 601 568.2 601C552.3 601 536.7 601 521 601C505.3 601 489.7 601 473.8 601C458 601 442 601 426.2 601C410.3 601 394.7 601 379 601C363.3 601 347.7 601 331.8 601C316 601 300 601 284.2 601C268.3 601 252.7 601 236.8 601C221 601 205 601 189.2 601C173.3 601 157.7 601 142 601C126.3 601 110.7 601 94.8 601C79 601 63 601 47.2 601C31.3 601 15.7 601 7.8 601L0 601Z" fill="#cee2fd"></path><path d="M0 542L7.8 539.8C15.7 537.7 31.3 533.3 47.2 532.8C63 532.3 79 535.7 94.8 536.7C110.7 537.7 126.3 536.3 142 537.5C157.7 538.7 173.3 542.3 189.2 544.2C205 546 221 546 236.8 545.8C252.7 545.7 268.3 545.3 284.2 545C300 544.7 316 544.3 331.8 544.8C347.7 545.3 363.3 546.7 379 549.3C394.7 552 410.3 556 426.2 555C442 554 458 548 473.8 542C489.7 536 505.3 530 521 526.5C536.7 523 552.3 522 568.2 528.5C584 535 600 549 615.8 554.3C631.7 559.7 647.3 556.3 663.2 553.7C679 551 695 549 710.8 550.3C726.7 551.7 742.3 556.3 758 557.5C773.7 558.7 789.3 556.3 805.2 556.7C821 557 837 560 852.8 555.5C868.7 551 884.3 539 892.2 533L900 527L900 601L892.2 601C884.3 601 868.7 601 852.8 601C837 601 821 601 805.2 601C789.3 601 773.7 601 758 601C742.3 601 726.7 601 710.8 601C695 601 679 601 663.2 601C647.3 601 631.7 601 615.8 601C600 601 584 601 568.2 601C552.3 601 536.7 601 521 601C505.3 601 489.7 601 473.8 601C458 601 442 601 426.2 601C410.3 601 394.7 601 379 601C363.3 601 347.7 601 331.8 601C316 601 300 601 284.2 601C268.3 601 252.7 601 236.8 601C221 601 205 601 189.2 601C173.3 601 157.7 601 142 601C126.3 601 110.7 601 94.8 601C79 601 63 601 47.2 601C31.3 601 15.7 601 7.8 601L0 601Z" fill="#e7f0fe"></path><path d="M0 548L7.8 548.2C15.7 548.3 31.3 548.7 47.2 553.2C63 557.7 79 566.3 94.8 570.2C110.7 574 126.3 573 142 571C157.7 569 173.3 566 189.2 564.2C205 562.3 221 561.7 236.8 563.7C252.7 565.7 268.3 570.3 284.2 570.7C300 571 316 567 331.8 565C347.7 563 363.3 563 379 561.2C394.7 559.3 410.3 555.7 426.2 556.8C442 558 458 564 473.8 566.3C489.7 568.7 505.3 567.3 521 567.5C536.7 567.7 552.3 569.3 568.2 571C584 572.7 600 574.3 615.8 571.3C631.7 568.3 647.3 560.7 663.2 556.3C679 552 695 551 710.8 552.2C726.7 553.3 742.3 556.7 758 560.3C773.7 564 789.3 568 805.2 568.8C821 569.7 837 567.3 852.8 565C868.7 562.7 884.3 560.3 892.2 559.2L900 558L900 601L892.2 601C884.3 601 868.7 601 852.8 601C837 601 821 601 805.2 601C789.3 601 773.7 601 758 601C742.3 601 726.7 601 710.8 601C695 601 679 601 663.2 601C647.3 601 631.7 601 615.8 601C600 601 584 601 568.2 601C552.3 601 536.7 601 521 601C505.3 601 489.7 601 473.8 601C458 601 442 601 426.2 601C410.3 601 394.7 601 379 601C363.3 601 347.7 601 331.8 601C316 601 300 601 284.2 601C268.3 601 252.7 601 236.8 601C221 601 205 601 189.2 601C173.3 601 157.7 601 142 601C126.3 601 110.7 601 94.8 601C79 601 63 601 47.2 601C31.3 601 15.7 601 7.8 601L0 601Z" fill="#ffffff"></path></svg>