<svg id="visual" viewBox="0 0 900 600" width="900" height="600" xmlns="http://www.w3.org/2000/svg" xmlns:xlink="http://www.w3.org/1999/xlink" version="1.1"><rect x="0" y="0" width="900" height="600" fill="#001220"></rect><path d="M0 445L6.8 442.3C13.7 439.7 27.3 434.3 41 440.8C54.7 447.3 68.3 465.7 82 472.8C95.7 480 109.3 476 123 471C136.7 466 150.3 460 164 456.3C177.7 452.7 191.3 451.3 204.8 458.7C218.3 466 231.7 482 245.2 486.8C258.7 491.7 272.3 485.3 286 476.7C299.7 468 313.3 457 327 452.7C340.7 448.3 354.3 450.7 368 452.5C381.7 454.3 395.3 455.7 409 457.5C422.7 459.3 436.3 461.7 450 466.5C463.7 471.3 477.3 478.7 491 479.3C504.7 480 518.3 474 532 465.5C545.7 457 559.3 446 573 439.8C586.7 433.7 600.3 432.3 614 433.2C627.7 434 641.3 437 654.8 441.2C668.3 445.3 681.7 450.7 695.2 455.2C708.7 459.7 722.3 463.3 736 469C749.7 474.7 763.3 482.3 777 480.8C790.7 479.3 804.3 468.7 818 469.7C831.7 470.7 845.3 483.3 859 484.8C872.7 486.3 886.3 476.7 893.2 471.8L900 467L900 601L893.2 601C886.3 601 872.7 601 859 601C845.3 601 831.7 601 818 601C804.3 601 790.7 601 777 601C763.3 601 749.7 601 736 601C722.3 601 708.7 601 695.2 601C681.7 601 668.3 601 654.8 601C641.3 601 627.7 601 614 601C600.3 601 586.7 601 573 601C559.3 601 545.7 601 532 601C518.3 601 504.7 601 491 601C477.3 601 463.7 601 450 601C436.3 601 422.7 601 409 601C395.3 601 381.7 601 368 601C354.3 601 340.7 601 327 601C313.3 601 299.7 601 286 601C272.3 601 258.7 601 245.2 601C231.7 601 218.3 601 204.8 601C191.3 601 177.7 601 164 601C150.3 601 136.7 601 123 601C109.3 601 95.7 601 82 601C68.3 601 54.7 601 41 601C27.3 601 13.7 601 6.8 601L0 601Z" fill="#ffffff"></path><path d="M0 510L6.8 503.3C13.7 496.7 27.3 483.3 41 476.7C54.7 470 68.3 470 82 466C95.7 462 109.3 454 123 454.5C136.7 455 150.3 464 164 471.3C177.7 478.7 191.3 484.3 204.8 486.2C218.3 488 231.7 486 245.2 484.3C258.7 482.7 272.3 481.3 286 477.3C299.7 473.3 313.3 466.7 327 465.8C340.7 465 354.3 470 368 470.5C381.7 471 395.3 467 409 466.3C422.7 465.7 436.3 468.3 450 469.8C463.7 471.3 477.3 471.7 491 469.5C504.7 467.3 518.3 462.7 532 467.3C545.7 472 559.3 486 573 488.3C586.7 490.7 600.3 481.3 614 472.5C627.7 463.7 641.3 455.3 654.8 456.2C668.3 457 681.7 467 695.2 475C708.7 483 722.3 489 736 484.7C749.7 480.3 763.3 465.7 777 458.3C790.7 451 804.3 451 818 450.8C831.7 450.7 845.3 450.3 859 453.2C872.7 456 886.3 462 893.2 465L900 468L900 601L893.2 601C886.3 601 872.7 601 859 601C845.3 601 831.7 601 818 601C804.3 601 790.7 601 777 601C763.3 601 749.7 601 736 601C722.3 601 708.7 601 695.2 601C681.7 601 668.3 601 654.8 601C641.3 601 627.7 601 614 601C600.3 601 586.7 601 573 601C559.3 601 545.7 601 532 601C518.3 601 504.7 601 491 601C477.3 601 463.7 601 450 601C436.3 601 422.7 601 409 601C395.3 601 381.7 601 368 601C354.3 601 340.7 601 327 601C313.3 601 299.7 601 286 601C272.3 601 258.7 601 245.2 601C231.7 601 218.3 601 204.8 601C191.3 601 177.7 601 164 601C150.3 601 136.7 601 123 601C109.3 601 95.7 601 82 601C68.3 601 54.7 601 41 601C27.3 601 13.7 601 6.8 601L0 601Z" fill="#eff5fe"></path><path d="M0 472L6.8 478.8C13.7 485.7 27.3 499.3 41 499.5C54.7 499.7 68.3 486.3 82 484.7C95.7 483 109.3 493 123 497.3C136.7 501.7 150.3 500.3 164 494.2C177.7 488 191.3 477 204.8 477.7C218.3 478.3 231.7 490.7 245.2 496.7C258.7 502.7 272.3 502.3 286 497.3C299.7 492.3 313.3 482.7 327 480.5C340.7 478.3 354.3 483.7 368 486.3C381.7 489 395.3 489 409 490.8C422.7 492.7 436.3 496.3 450 497C463.7 497.7 477.3 495.3 491 495.2C504.7 495 518.3 497 532 492.3C545.7 487.7 559.3 476.3 573 470.7C586.7 465 600.3 465 614 471.2C627.7 477.3 641.3 489.7 654.8 498.7C668.3 507.7 681.7 513.3 695.2 510.5C708.7 507.7 722.3 496.3 736 496.8C749.7 497.3 763.3 509.7 777 505.8C790.7 502 804.3 482 818 472.8C831.7 463.7 845.3 465.3 859 468.3C872.7 471.3 886.3 475.7 893.2 477.8L900 480L900 601L893.2 601C886.3 601 872.7 601 859 601C845.3 601 831.7 601 818 601C804.3 601 790.7 601 777 601C763.3 601 749.7 601 736 601C722.3 601 708.7 601 695.2 601C681.7 601 668.3 601 654.8 601C641.3 601 627.7 601 614 601C600.3 601 586.7 601 573 601C559.3 601 545.7 601 532 601C518.3 601 504.7 601 491 601C477.3 601 463.7 601 450 601C436.3 601 422.7 601 409 601C395.3 601 381.7 601 368 601C354.3 601 340.7 601 327 601C313.3 601 299.7 601 286 601C272.3 601 258.7 601 245.2 601C231.7 601 218.3 601 204.8 601C191.3 601 177.7 601 164 601C150.3 601 136.7 601 123 601C109.3 601 95.7 601 82 601C68.3 601 54.7 601 41 601C27.3 601 13.7 601 6.8 601L0 601Z" fill="#dfecfe"></path><path d="M0 487L6.8 494.5C13.7 502 27.3 517 41 524.3C54.7 531.7 68.3 531.3 82 526C95.7 520.7 109.3 510.3 123 509.2C136.7 508 150.3 516 164 516.8C177.7 517.7 191.3 511.3 204.8 508.3C218.3 505.3 231.7 505.7 245.2 507.8C258.7 510 272.3 514 286 515.5C299.7 517 313.3 516 327 510.2C340.7 504.3 354.3 493.7 368 491.2C381.7 488.7 395.3 494.3 409 500.3C422.7 506.3 436.3 512.7 450 509.8C463.7 507 477.3 495 491 496.2C504.7 497.3 518.3 511.7 532 516.3C545.7 521 559.3 516 573 511.5C586.7 507 600.3 503 614 505.7C627.7 508.3 641.3 517.7 654.8 522.3C668.3 527 681.7 527 695.2 523.7C708.7 520.3 722.3 513.7 736 505.3C749.7 497 763.3 487 777 486.3C790.7 485.7 804.3 494.3 818 498.5C831.7 502.7 845.3 502.3 859 497.8C872.7 493.3 886.3 484.7 893.2 480.3L900 476L900 601L893.2 601C886.3 601 872.7 601 859 601C845.3 601 831.7 601 818 601C804.3 601 790.7 601 777 601C763.3 601 749.7 601 736 601C722.3 601 708.7 601 695.2 601C681.7 601 668.3 601 654.8 601C641.3 601 627.7 601 614 601C600.3 601 586.7 601 573 601C559.3 601 545.7 601 532 601C518.3 601 504.7 601 491 601C477.3 601 463.7 601 450 601C436.3 601 422.7 601 409 601C395.3 601 381.7 601 368 601C354.3 601 340.7 601 327 601C313.3 601 299.7 601 286 601C272.3 601 258.7 601 245.2 601C231.7 601 218.3 601 204.8 601C191.3 601 177.7 601 164 601C150.3 601 136.7 601 123 601C109.3 601 95.7 601 82 601C68.3 601 54.7 601 41 601C27.3 601 13.7 601 6.8 601L0 601Z" fill="#cee2fd"></path><path d="M0 515L6.8 515.5C13.7 516 27.3 517 41 514.7C54.7 512.3 68.3 506.7 82 503.3C95.7 500 109.3 499 123 497.3C136.7 495.7 150.3 493.3 164 498.8C177.7 504.3 191.3 517.7 204.8 522.7C218.3 527.7 231.7 524.3 245.2 518.2C258.7 512 272.3 503 286 502.8C299.7 502.7 313.3 511.3 327 517.2C340.7 523 354.3 526 368 528C381.7 530 395.3 531 409 529.3C422.7 527.7 436.3 523.3 450 517.2C463.7 511 477.3 503 491 506.3C504.7 509.7 518.3 524.3 532 531.3C545.7 538.3 559.3 537.7 573 532C586.7 526.3 600.3 515.7 614 511.8C627.7 508 641.3 511 654.8 517C668.3 523 681.7 532 695.2 529.5C708.7 527 722.3 513 736 510C749.7 507 763.3 515 777 520.8C790.7 526.7 804.3 530.3 818 526.7C831.7 523 845.3 512 859 510.5C872.7 509 886.3 517 893.2 521L900 525L900 601L893.2 601C886.3 601 872.7 601 859 601C845.3 601 831.7 601 818 601C804.3 601 790.7 601 777 601C763.3 601 749.7 601 736 601C722.3 601 708.7 601 695.2 601C681.7 601 668.3 601 654.8 601C641.3 601 627.7 601 614 601C600.3 601 586.7 601 573 601C559.3 601 545.7 601 532 601C518.3 601 504.7 601 491 601C477.3 601 463.7 601 450 601C436.3 601 422.7 601 409 601C395.3 601 381.7 601 368 601C354.3 601 340.7 601 327 601C313.3 601 299.7 601 286 601C272.3 601 258.7 601 245.2 601C231.7 601 218.3 601 204.8 601C191.3 601 177.7 601 164 601C150.3 601 136.7 601 123 601C109.3 601 95.7 601 82 601C68.3 601 54.7 601 41 601C27.3 601 13.7 601 6.8 601L0 601Z" fill="#bdd9fc"></path><path d="M0 518L6.8 518.3C13.7 518.7 27.3 519.3 41 517.5C54.7 515.7 68.3 511.3 82 516.8C95.7 522.3 109.3 537.7 123 542.7C136.7 547.7 150.3 542.3 164 542.2C177.7 542 191.3 547 204.8 544.5C218.3 542 231.7 532 245.2 527.8C258.7 523.7 272.3 525.3 286 527.3C299.7 529.3 313.3 531.7 327 533.2C340.7 534.7 354.3 535.3 368 532C381.7 528.7 395.3 521.3 409 517C422.7 512.7 436.3 511.3 450 511.8C463.7 512.3 477.3 514.7 491 516.7C504.7 518.7 518.3 520.3 532 520.2C545.7 520 559.3 518 573 517.3C586.7 516.7 600.3 517.3 614 522.2C627.7 527 641.3 536 654.8 538.2C668.3 540.3 681.7 535.7 695.2 531.8C708.7 528 722.3 525 736 528.5C749.7 532 763.3 542 777 544.3C790.7 546.7 804.3 541.3 818 539.2C831.7 537 845.3 538 859 534C872.7 530 886.3 521 893.2 516.5L900 512L900 601L893.2 601C886.3 601 872.7 601 859 601C845.3 601 831.7 601 818 601C804.3 601 790.7 601 777 601C763.3 601 749.7 601 736 601C722.3 601 708.7 601 695.2 601C681.7 601 668.3 601 654.8 601C641.3 601 627.7 601 614 601C600.3 601 586.7 601 573 601C559.3 601 545.7 601 532 601C518.3 601 504.7 601 491 601C477.3 601 463.7 601 450 601C436.3 601 422.7 601 409 601C395.3 601 381.7 601 368 601C354.3 601 340.7 601 327 601C313.3 601 299.7 601 286 601C272.3 601 258.7 601 245.2 601C231.7 601 218.3 601 204.8 601C191.3 601 177.7 601 164 601C150.3 601 136.7 601 123 601C109.3 601 95.7 601 82 601C68.3 601 54.7 601 41 601C27.3 601 13.7 601 6.8 601L0 601Z" fill="#abcffc"></path><path d="M0 559L6.8 557.5C13.7 556 27.3 553 41 551.2C54.7 549.3 68.3 548.7 82 548.7C95.7 548.7 109.3 549.3 123 549.2C136.7 549 150.3 548 164 550.2C177.7 552.3 191.3 557.7 204.8 558.3C218.3 559 231.7 555 245.2 549.8C258.7 544.7 272.3 538.3 286 534.2C299.7 530 313.3 528 327 527.3C340.7 526.7 354.3 527.3 368 532.2C381.7 537 395.3 546 409 550.5C422.7 555 436.3 555 450 556.2C463.7 557.3 477.3 559.7 491 558.8C504.7 558 518.3 554 532 549C545.7 544 559.3 538 573 537.5C586.7 537 600.3 542 614 546.2C627.7 550.3 641.3 553.7 654.8 554.2C668.3 554.7 681.7 552.3 695.2 549.7C708.7 547 722.3 544 736 542.7C749.7 541.3 763.3 541.7 777 543.8C790.7 546 804.3 550 818 548C831.7 546 845.3 538 859 535.7C872.7 533.3 886.3 536.7 893.2 538.3L900 540L900 601L893.2 601C886.3 601 872.7 601 859 601C845.3 601 831.7 601 818 601C804.3 601 790.7 601 777 601C763.3 601 749.7 601 736 601C722.3 601 708.7 601 695.2 601C681.7 601 668.3 601 654.8 601C641.3 601 627.7 601 614 601C600.3 601 586.7 601 573 601C559.3 601 545.7 601 532 601C518.3 601 504.7 601 491 601C477.3 601 463.7 601 450 601C436.3 601 422.7 601 409 601C395.3 601 381.7 601 368 601C354.3 601 340.7 601 327 601C313.3 601 299.7 601 286 601C272.3 601 258.7 601 245.2 601C231.7 601 218.3 601 204.8 601C191.3 601 177.7 601 164 601C150.3 601 136.7 601 123 601C109.3 601 95.7 601 82 601C68.3 601 54.7 601 41 601C27.3 601 13.7 601 6.8 601L0 601Z" fill="#98c6fa"></path><path d="M0 574L6.8 570.2C13.7 566.3 27.3 558.7 41 555.8C54.7 553 68.3 555 82 555.8C95.7 556.7 109.3 556.3 123 558.8C136.7 561.3 150.3 566.7 164 566.8C177.7 567 191.3 562 204.8 562.3C218.3 562.7 231.7 568.3 245.2 570.2C258.7 572 272.3 570 286 567.8C299.7 565.7 313.3 563.3 327 564C340.7 564.7 354.3 568.3 368 568C381.7 567.7 395.3 563.3 409 560.7C422.7 558 436.3 557 450 556.5C463.7 556 477.3 556 491 558.8C504.7 561.7 518.3 567.3 532 569.2C545.7 571 559.3 569 573 566.8C586.7 564.7 600.3 562.3 614 560.3C627.7 558.3 641.3 556.7 654.8 558.5C668.3 560.3 681.7 565.7 695.2 563.2C708.7 560.7 722.3 550.3 736 550.7C749.7 551 763.3 562 777 563.7C790.7 565.3 804.3 557.7 818 555.7C831.7 553.7 845.3 557.3 859 557.7C872.7 558 886.3 555 893.2 553.5L900 552L900 601L893.2 601C886.3 601 872.7 601 859 601C845.3 601 831.7 601 818 601C804.3 601 790.7 601 777 601C763.3 601 749.7 601 736 601C722.3 601 708.7 601 695.2 601C681.7 601 668.3 601 654.8 601C641.3 601 627.7 601 614 601C600.3 601 586.7 601 573 601C559.3 601 545.7 601 532 601C518.3 601 504.7 601 491 601C477.3 601 463.7 601 450 601C436.3 601 422.7 601 409 601C395.3 601 381.7 601 368 601C354.3 601 340.7 601 327 601C313.3 601 299.7 601 286 601C272.3 601 258.7 601 245.2 601C231.7 601 218.3 601 204.8 601C191.3 601 177.7 601 164 601C150.3 601 136.7 601 123 601C109.3 601 95.7 601 82 601C68.3 601 54.7 601 41 601C27.3 601 13.7 601 6.8 601L0 601Z" fill="#83bdf9"></path><path d="M0 580L6.8 577.5C13.7 575 27.3 570 41 566.3C54.7 562.7 68.3 560.3 82 563.5C95.7 566.7 109.3 575.3 123 579C136.7 582.7 150.3 581.3 164 577.5C177.7 573.7 191.3 567.3 204.8 564.7C218.3 562 231.7 563 245.2 564.3C258.7 565.7 272.3 567.3 286 569.5C299.7 571.7 313.3 574.3 327 574.7C340.7 575 354.3 573 368 572.3C381.7 571.7 395.3 572.3 409 573.7C422.7 575 436.3 577 450 578C463.7 579 477.3 579 491 577.2C504.7 575.3 518.3 571.7 532 567.7C545.7 563.7 559.3 559.3 573 557C586.7 554.7 600.3 554.3 614 555.7C627.7 557 641.3 560 654.8 564.3C668.3 568.7 681.7 574.3 695.2 574.5C708.7 574.7 722.3 569.3 736 566.7C749.7 564 763.3 564 777 566.5C790.7 569 804.3 574 818 576.7C831.7 579.3 845.3 579.7 859 580C872.7 580.3 886.3 580.7 893.2 580.8L900 581L900 601L893.2 601C886.3 601 872.7 601 859 601C845.3 601 831.7 601 818 601C804.3 601 790.7 601 777 601C763.3 601 749.7 601 736 601C722.3 601 708.7 601 695.2 601C681.7 601 668.3 601 654.8 601C641.3 601 627.7 601 614 601C600.3 601 586.7 601 573 601C559.3 601 545.7 601 532 601C518.3 601 504.7 601 491 601C477.3 601 463.7 601 450 601C436.3 601 422.7 601 409 601C395.3 601 381.7 601 368 601C354.3 601 340.7 601 327 601C313.3 601 299.7 601 286 601C272.3 601 258.7 601 245.2 601C231.7 601 218.3 601 204.8 601C191.3 601 177.7 601 164 601C150.3 601 136.7 601 123 601C109.3 601 95.7 601 82 601C68.3 601 54.7 601 41 601C27.3 601 13.7 601 6.8 601L0 601Z" fill="#6cb5f8"></path><path d="M0 572L6.8 573.2C13.7 574.3 27.3 576.7 41 580.5C54.7 584.3 68.3 589.7 82 588.2C95.7 586.7 109.3 578.3 123 575C136.7 571.7 150.3 573.3 164 577C177.7 580.7 191.3 586.3 204.8 589.5C218.3 592.7 231.7 593.3 245.2 590.8C258.7 588.3 272.3 582.7 286 581.3C299.7 580 313.3 583 327 584.8C340.7 586.7 354.3 587.3 368 587C381.7 586.7 395.3 585.3 409 583.3C422.7 581.3 436.3 578.7 450 580.5C463.7 582.3 477.3 588.7 491 588.8C504.7 589 518.3 583 532 581.5C545.7 580 559.3 583 573 582.7C586.7 582.3 600.3 578.7 614 578.2C627.7 577.7 641.3 580.3 654.8 582C668.3 583.7 681.7 584.3 695.2 582.3C708.7 580.3 722.3 575.7 736 576.3C749.7 577 763.3 583 777 584C790.7 585 804.3 581 818 579.7C831.7 578.3 845.3 579.7 859 582.2C872.7 584.7 886.3 588.3 893.2 590.2L900 592L900 601L893.2 601C886.3 601 872.7 601 859 601C845.3 601 831.7 601 818 601C804.3 601 790.7 601 777 601C763.3 601 749.7 601 736 601C722.3 601 708.7 601 695.2 601C681.7 601 668.3 601 654.8 601C641.3 601 627.7 601 614 601C600.3 601 586.7 601 573 601C559.3 601 545.7 601 532 601C518.3 601 504.7 601 491 601C477.3 601 463.7 601 450 601C436.3 601 422.7 601 409 601C395.3 601 381.7 601 368 601C354.3 601 340.7 601 327 601C313.3 601 299.7 601 286 601C272.3 601 258.7 601 245.2 601C231.7 601 218.3 601 204.8 601C191.3 601 177.7 601 164 601C150.3 601 136.7 601 123 601C109.3 601 95.7 601 82 601C68.3 601 54.7 601 41 601C27.3 601 13.7 601 6.8 601L0 601Z" fill="#4facf7"></path></svg>