<svg id="visual" viewBox="0 0 900 600" width="900" height="600" xmlns="http://www.w3.org/2000/svg" xmlns:xlink="http://www.w3.org/1999/xlink" version="1.1"><path d="M0 419L7.8 422.3C15.7 425.7 31.3 432.3 47.2 431C63 429.7 79 420.3 94.8 422.7C110.7 425 126.3 439 142 445.7C157.7 452.3 173.3 451.7 189.2 459.3C205 467 221 483 236.8 486.5C252.7 490 268.3 481 284.2 470.5C300 460 316 448 331.8 446.5C347.7 445 363.3 454 379 461.7C394.7 469.3 410.3 475.7 426.2 472C442 468.3 458 454.7 473.8 454.2C489.7 453.7 505.3 466.3 521 468.7C536.7 471 552.3 463 568.2 460.2C584 457.3 600 459.7 615.8 466.2C631.7 472.7 647.3 483.3 663.2 481.2C679 479 695 464 710.8 459.3C726.7 454.7 742.3 460.3 758 456C773.7 451.7 789.3 437.3 805.2 438.8C821 440.3 837 457.7 852.8 461.2C868.7 464.7 884.3 454.3 892.2 449.2L900 444L900 601L892.2 601C884.3 601 868.7 601 852.8 601C837 601 821 601 805.2 601C789.3 601 773.7 601 758 601C742.3 601 726.7 601 710.8 601C695 601 679 601 663.2 601C647.3 601 631.7 601 615.8 601C600 601 584 601 568.2 601C552.3 601 536.7 601 521 601C505.3 601 489.7 601 473.8 601C458 601 442 601 426.2 601C410.3 601 394.7 601 379 601C363.3 601 347.7 601 331.8 601C316 601 300 601 284.2 601C268.3 601 252.7 601 236.8 601C221 601 205 601 189.2 601C173.3 601 157.7 601 142 601C126.3 601 110.7 601 94.8 601C79 601 63 601 47.2 601C31.3 601 15.7 601 7.8 601L0 601Z" fill="#4facf7"></path><path d="M0 437L7.8 440.5C15.7 444 31.3 451 47.2 464.5C63 478 79 498 94.8 506.7C110.7 515.3 126.3 512.7 142 503.8C157.7 495 173.3 480 189.2 466.2C205 452.3 221 439.7 236.8 439.3C252.7 439 268.3 451 284.2 452.3C300 453.7 316 444.3 331.8 449.2C347.7 454 363.3 473 379 479.3C394.7 485.7 410.3 479.3 426.2 469.2C442 459 458 445 473.8 442.7C489.7 440.3 505.3 449.7 521 460.8C536.7 472 552.3 485 568.2 485C584 485 600 472 615.8 462.3C631.7 452.7 647.3 446.3 663.2 439.8C679 433.3 695 426.7 710.8 427.2C726.7 427.7 742.3 435.3 758 440C773.7 444.7 789.3 446.3 805.2 443.2C821 440 837 432 852.8 442.8C868.7 453.7 884.3 483.3 892.2 498.2L900 513L900 601L892.2 601C884.3 601 868.7 601 852.8 601C837 601 821 601 805.2 601C789.3 601 773.7 601 758 601C742.3 601 726.7 601 710.8 601C695 601 679 601 663.2 601C647.3 601 631.7 601 615.8 601C600 601 584 601 568.2 601C552.3 601 536.7 601 521 601C505.3 601 489.7 601 473.8 601C458 601 442 601 426.2 601C410.3 601 394.7 601 379 601C363.3 601 347.7 601 331.8 601C316 601 300 601 284.2 601C268.3 601 252.7 601 236.8 601C221 601 205 601 189.2 601C173.3 601 157.7 601 142 601C126.3 601 110.7 601 94.8 601C79 601 63 601 47.2 601C31.3 601 15.7 601 7.8 601L0 601Z" fill="#78b9f9"></path><path d="M0 456L7.8 464.8C15.7 473.7 31.3 491.3 47.2 491.5C63 491.7 79 474.3 94.8 467.5C110.7 460.7 126.3 464.3 142 473.7C157.7 483 173.3 498 189.2 505.3C205 512.7 221 512.3 236.8 501.3C252.7 490.3 268.3 468.7 284.2 469.7C300 470.7 316 494.3 331.8 496.8C347.7 499.3 363.3 480.7 379 471C394.7 461.3 410.3 460.7 426.2 460C442 459.3 458 458.7 473.8 470C489.7 481.3 505.3 504.7 521 503C536.7 501.3 552.3 474.7 568.2 472.8C584 471 600 494 615.8 495C631.7 496 647.3 475 663.2 468.2C679 461.3 695 468.7 710.8 467.3C726.7 466 742.3 456 758 464.8C773.7 473.7 789.3 501.3 805.2 506.8C821 512.3 837 495.7 852.8 491.3C868.7 487 884.3 495 892.2 499L900 503L900 601L892.2 601C884.3 601 868.7 601 852.8 601C837 601 821 601 805.2 601C789.3 601 773.7 601 758 601C742.3 601 726.7 601 710.8 601C695 601 679 601 663.2 601C647.3 601 631.7 601 615.8 601C600 601 584 601 568.2 601C552.3 601 536.7 601 521 601C505.3 601 489.7 601 473.8 601C458 601 442 601 426.2 601C410.3 601 394.7 601 379 601C363.3 601 347.7 601 331.8 601C316 601 300 601 284.2 601C268.3 601 252.7 601 236.8 601C221 601 205 601 189.2 601C173.3 601 157.7 601 142 601C126.3 601 110.7 601 94.8 601C79 601 63 601 47.2 601C31.3 601 15.7 601 7.8 601L0 601Z" fill="#98c6fa"></path><path d="M0 484L7.8 487C15.7 490 31.3 496 47.2 504C63 512 79 522 94.8 527.2C110.7 532.3 126.3 532.7 142 524C157.7 515.3 173.3 497.7 189.2 498.8C205 500 221 520 236.8 518C252.7 516 268.3 492 284.2 480.8C300 469.7 316 471.3 331.8 475C347.7 478.7 363.3 484.3 379 484.3C394.7 484.3 410.3 478.7 426.2 475.5C442 472.3 458 471.7 473.8 471.8C489.7 472 505.3 473 521 481.5C536.7 490 552.3 506 568.2 506C584 506 600 490 615.8 492C631.7 494 647.3 514 663.2 513.2C679 512.3 695 490.7 710.8 480.2C726.7 469.7 742.3 470.3 758 472C773.7 473.7 789.3 476.3 805.2 488.2C821 500 837 521 852.8 520.3C868.7 519.7 884.3 497.3 892.2 486.2L900 475L900 601L892.2 601C884.3 601 868.7 601 852.8 601C837 601 821 601 805.2 601C789.3 601 773.7 601 758 601C742.3 601 726.7 601 710.8 601C695 601 679 601 663.2 601C647.3 601 631.7 601 615.8 601C600 601 584 601 568.2 601C552.3 601 536.7 601 521 601C505.3 601 489.7 601 473.8 601C458 601 442 601 426.2 601C410.3 601 394.7 601 379 601C363.3 601 347.7 601 331.8 601C316 601 300 601 284.2 601C268.3 601 252.7 601 236.8 601C221 601 205 601 189.2 601C173.3 601 157.7 601 142 601C126.3 601 110.7 601 94.8 601C79 601 63 601 47.2 601C31.3 601 15.7 601 7.8 601L0 601Z" fill="#b4d4fc"></path><path d="M0 549L7.8 544.7C15.7 540.3 31.3 531.7 47.2 526C63 520.3 79 517.7 94.8 513C110.7 508.3 126.3 501.7 142 504.7C157.7 507.7 173.3 520.3 189.2 525.5C205 530.7 221 528.3 236.8 522.7C252.7 517 268.3 508 284.2 508.7C300 509.3 316 519.7 331.8 522.2C347.7 524.7 363.3 519.3 379 518.7C394.7 518 410.3 522 426.2 519.3C442 516.7 458 507.3 473.8 505.5C489.7 503.7 505.3 509.3 521 518C536.7 526.7 552.3 538.3 568.2 540C584 541.7 600 533.3 615.8 533C631.7 532.7 647.3 540.3 663.2 541.2C679 542 695 536 710.8 529.8C726.7 523.7 742.3 517.3 758 515.2C773.7 513 789.3 515 805.2 514.5C821 514 837 511 852.8 508.7C868.7 506.3 884.3 504.7 892.2 503.8L900 503L900 601L892.2 601C884.3 601 868.7 601 852.8 601C837 601 821 601 805.2 601C789.3 601 773.7 601 758 601C742.3 601 726.7 601 710.8 601C695 601 679 601 663.2 601C647.3 601 631.7 601 615.8 601C600 601 584 601 568.2 601C552.3 601 536.7 601 521 601C505.3 601 489.7 601 473.8 601C458 601 442 601 426.2 601C410.3 601 394.7 601 379 601C363.3 601 347.7 601 331.8 601C316 601 300 601 284.2 601C268.3 601 252.7 601 236.8 601C221 601 205 601 189.2 601C173.3 601 157.7 601 142 601C126.3 601 110.7 601 94.8 601C79 601 63 601 47.2 601C31.3 601 15.7 601 7.8 601L0 601Z" fill="#cee2fd"></path><path d="M0 536L7.8 534.8C15.7 533.7 31.3 531.3 47.2 529.5C63 527.7 79 526.3 94.8 531.5C110.7 536.7 126.3 548.3 142 547.5C157.7 546.7 173.3 533.3 189.2 528.7C205 524 221 528 236.8 529.8C252.7 531.7 268.3 531.3 284.2 536.8C300 542.3 316 553.7 331.8 557C347.7 560.3 363.3 555.7 379 550C394.7 544.3 410.3 537.7 426.2 534.7C442 531.7 458 532.3 473.8 534.2C489.7 536 505.3 539 521 542.3C536.7 545.7 552.3 549.3 568.2 550.8C584 552.3 600 551.7 615.8 551.2C631.7 550.7 647.3 550.3 663.2 550.2C679 550 695 550 710.8 548C726.7 546 742.3 542 758 537.3C773.7 532.7 789.3 527.3 805.2 528.3C821 529.3 837 536.7 852.8 543.7C868.7 550.7 884.3 557.3 892.2 560.7L900 564L900 601L892.2 601C884.3 601 868.7 601 852.8 601C837 601 821 601 805.2 601C789.3 601 773.7 601 758 601C742.3 601 726.7 601 710.8 601C695 601 679 601 663.2 601C647.3 601 631.7 601 615.8 601C600 601 584 601 568.2 601C552.3 601 536.7 601 521 601C505.3 601 489.7 601 473.8 601C458 601 442 601 426.2 601C410.3 601 394.7 601 379 601C363.3 601 347.7 601 331.8 601C316 601 300 601 284.2 601C268.3 601 252.7 601 236.8 601C221 601 205 601 189.2 601C173.3 601 157.7 601 142 601C126.3 601 110.7 601 94.8 601C79 601 63 601 47.2 601C31.3 601 15.7 601 7.8 601L0 601Z" fill="#e7f0fe"></path><path d="M0 548L7.8 547.8C15.7 547.7 31.3 547.3 47.2 547.2C63 547 79 547 94.8 550.2C110.7 553.3 126.3 559.7 142 563.5C157.7 567.3 173.3 568.7 189.2 569.8C205 571 221 572 236.8 572.8C252.7 573.7 268.3 574.3 284.2 570.3C300 566.3 316 557.7 331.8 553C347.7 548.3 363.3 547.7 379 549C394.7 550.3 410.3 553.7 426.2 553.7C442 553.7 458 550.3 473.8 549.7C489.7 549 505.3 551 521 555.5C536.7 560 552.3 567 568.2 566.7C584 566.3 600 558.7 615.8 557.5C631.7 556.3 647.3 561.7 663.2 561.3C679 561 695 555 710.8 556.3C726.7 557.7 742.3 566.3 758 569.7C773.7 573 789.3 571 805.2 570.5C821 570 837 571 852.8 570C868.7 569 884.3 566 892.2 564.5L900 563L900 601L892.2 601C884.3 601 868.7 601 852.8 601C837 601 821 601 805.2 601C789.3 601 773.7 601 758 601C742.3 601 726.7 601 710.8 601C695 601 679 601 663.2 601C647.3 601 631.7 601 615.8 601C600 601 584 601 568.2 601C552.3 601 536.7 601 521 601C505.3 601 489.7 601 473.8 601C458 601 442 601 426.2 601C410.3 601 394.7 601 379 601C363.3 601 347.7 601 331.8 601C316 601 300 601 284.2 601C268.3 601 252.7 601 236.8 601C221 601 205 601 189.2 601C173.3 601 157.7 601 142 601C126.3 601 110.7 601 94.8 601C79 601 63 601 47.2 601C31.3 601 15.7 601 7.8 601L0 601Z" fill="#ffffff"></path></svg>