<svg id="visual" viewBox="0 0 900 600" width="900" height="600" xmlns="http://www.w3.org/2000/svg" xmlns:xlink="http://www.w3.org/1999/xlink" version="1.1"><path d="M0 506L7.8 500.3C15.7 494.7 31.3 483.3 47.2 476C63 468.7 79 465.3 94.8 464.5C110.7 463.7 126.3 465.3 142 459.7C157.7 454 173.3 441 189.2 440.2C205 439.3 221 450.7 236.8 454.7C252.7 458.7 268.3 455.3 284.2 450.5C300 445.7 316 439.3 331.8 430.2C347.7 421 363.3 409 379 411.8C394.7 414.7 410.3 432.3 426.2 437C442 441.7 458 433.3 473.8 435.7C489.7 438 505.3 451 521 449.8C536.7 448.7 552.3 433.3 568.2 431.8C584 430.3 600 442.7 615.8 444.5C631.7 446.3 647.3 437.7 663.2 437.3C679 437 695 445 710.8 457.2C726.7 469.3 742.3 485.7 758 491.2C773.7 496.7 789.3 491.3 805.2 487.7C821 484 837 482 852.8 474.8C868.7 467.7 884.3 455.3 892.2 449.2L900 443L900 601L892.2 601C884.3 601 868.7 601 852.8 601C837 601 821 601 805.2 601C789.3 601 773.7 601 758 601C742.3 601 726.7 601 710.8 601C695 601 679 601 663.2 601C647.3 601 631.7 601 615.8 601C600 601 584 601 568.2 601C552.3 601 536.7 601 521 601C505.3 601 489.7 601 473.8 601C458 601 442 601 426.2 601C410.3 601 394.7 601 379 601C363.3 601 347.7 601 331.8 601C316 601 300 601 284.2 601C268.3 601 252.7 601 236.8 601C221 601 205 601 189.2 601C173.3 601 157.7 601 142 601C126.3 601 110.7 601 94.8 601C79 601 63 601 47.2 601C31.3 601 15.7 601 7.8 601L0 601Z" fill="#4facf7"></path><path d="M0 432L7.8 430C15.7 428 31.3 424 47.2 422.2C63 420.3 79 420.7 94.8 435.7C110.7 450.7 126.3 480.3 142 494.7C157.7 509 173.3 508 189.2 507.2C205 506.3 221 505.7 236.8 494.8C252.7 484 268.3 463 284.2 449.7C300 436.3 316 430.7 331.8 431.3C347.7 432 363.3 439 379 451C394.7 463 410.3 480 426.2 486.5C442 493 458 489 473.8 483.5C489.7 478 505.3 471 521 464.7C536.7 458.3 552.3 452.7 568.2 448.7C584 444.7 600 442.3 615.8 440.5C631.7 438.7 647.3 437.3 663.2 446.2C679 455 695 474 710.8 486.3C726.7 498.7 742.3 504.3 758 493.3C773.7 482.3 789.3 454.7 805.2 451.5C821 448.3 837 469.7 852.8 473.5C868.7 477.3 884.3 463.7 892.2 456.8L900 450L900 601L892.2 601C884.3 601 868.7 601 852.8 601C837 601 821 601 805.2 601C789.3 601 773.7 601 758 601C742.3 601 726.7 601 710.8 601C695 601 679 601 663.2 601C647.3 601 631.7 601 615.8 601C600 601 584 601 568.2 601C552.3 601 536.7 601 521 601C505.3 601 489.7 601 473.8 601C458 601 442 601 426.2 601C410.3 601 394.7 601 379 601C363.3 601 347.7 601 331.8 601C316 601 300 601 284.2 601C268.3 601 252.7 601 236.8 601C221 601 205 601 189.2 601C173.3 601 157.7 601 142 601C126.3 601 110.7 601 94.8 601C79 601 63 601 47.2 601C31.3 601 15.7 601 7.8 601L0 601Z" fill="#78b9f9"></path><path d="M0 447L7.8 456.7C15.7 466.3 31.3 485.7 47.2 493.5C63 501.3 79 497.7 94.8 491.8C110.7 486 126.3 478 142 479.2C157.7 480.3 173.3 490.7 189.2 499.2C205 507.7 221 514.3 236.8 518.5C252.7 522.7 268.3 524.3 284.2 521C300 517.7 316 509.3 331.8 497.8C347.7 486.3 363.3 471.7 379 473.2C394.7 474.7 410.3 492.3 426.2 503.2C442 514 458 518 473.8 513.2C489.7 508.3 505.3 494.7 521 493.8C536.7 493 552.3 505 568.2 508.8C584 512.7 600 508.3 615.8 501.8C631.7 495.3 647.3 486.7 663.2 479.7C679 472.7 695 467.3 710.8 471.7C726.7 476 742.3 490 758 495.2C773.7 500.3 789.3 496.7 805.2 489.7C821 482.7 837 472.3 852.8 472C868.7 471.7 884.3 481.3 892.2 486.2L900 491L900 601L892.2 601C884.3 601 868.7 601 852.8 601C837 601 821 601 805.2 601C789.3 601 773.7 601 758 601C742.3 601 726.7 601 710.8 601C695 601 679 601 663.2 601C647.3 601 631.7 601 615.8 601C600 601 584 601 568.2 601C552.3 601 536.7 601 521 601C505.3 601 489.7 601 473.8 601C458 601 442 601 426.2 601C410.3 601 394.7 601 379 601C363.3 601 347.7 601 331.8 601C316 601 300 601 284.2 601C268.3 601 252.7 601 236.8 601C221 601 205 601 189.2 601C173.3 601 157.7 601 142 601C126.3 601 110.7 601 94.8 601C79 601 63 601 47.2 601C31.3 601 15.7 601 7.8 601L0 601Z" fill="#98c6fa"></path><path d="M0 499L7.8 498.7C15.7 498.3 31.3 497.7 47.2 494.5C63 491.3 79 485.7 94.8 486C110.7 486.3 126.3 492.7 142 498.7C157.7 504.7 173.3 510.3 189.2 516.3C205 522.3 221 528.7 236.8 531.3C252.7 534 268.3 533 284.2 532C300 531 316 530 331.8 526C347.7 522 363.3 515 379 517.2C394.7 519.3 410.3 530.7 426.2 534.2C442 537.7 458 533.3 473.8 521.8C489.7 510.3 505.3 491.7 521 486.8C536.7 482 552.3 491 568.2 496C584 501 600 502 615.8 505C631.7 508 647.3 513 663.2 515.7C679 518.3 695 518.7 710.8 511.3C726.7 504 742.3 489 758 492.5C773.7 496 789.3 518 805.2 527.5C821 537 837 534 852.8 533.8C868.7 533.7 884.3 536.3 892.2 537.7L900 539L900 601L892.2 601C884.3 601 868.7 601 852.8 601C837 601 821 601 805.2 601C789.3 601 773.7 601 758 601C742.3 601 726.7 601 710.8 601C695 601 679 601 663.2 601C647.3 601 631.7 601 615.8 601C600 601 584 601 568.2 601C552.3 601 536.7 601 521 601C505.3 601 489.7 601 473.8 601C458 601 442 601 426.2 601C410.3 601 394.7 601 379 601C363.3 601 347.7 601 331.8 601C316 601 300 601 284.2 601C268.3 601 252.7 601 236.8 601C221 601 205 601 189.2 601C173.3 601 157.7 601 142 601C126.3 601 110.7 601 94.8 601C79 601 63 601 47.2 601C31.3 601 15.7 601 7.8 601L0 601Z" fill="#b4d4fc"></path><path d="M0 500L7.8 501.7C15.7 503.3 31.3 506.7 47.2 514C63 521.3 79 532.7 94.8 533.2C110.7 533.7 126.3 523.3 142 516.8C157.7 510.3 173.3 507.7 189.2 511.7C205 515.7 221 526.3 236.8 526.7C252.7 527 268.3 517 284.2 511.3C300 505.7 316 504.3 331.8 509.5C347.7 514.7 363.3 526.3 379 533.7C394.7 541 410.3 544 426.2 546C442 548 458 549 473.8 549C489.7 549 505.3 548 521 539.7C536.7 531.3 552.3 515.7 568.2 516.2C584 516.7 600 533.3 615.8 539.5C631.7 545.7 647.3 541.3 663.2 534.7C679 528 695 519 710.8 517.5C726.7 516 742.3 522 758 522.2C773.7 522.3 789.3 516.7 805.2 515.5C821 514.3 837 517.7 852.8 516.3C868.7 515 884.3 509 892.2 506L900 503L900 601L892.2 601C884.3 601 868.7 601 852.8 601C837 601 821 601 805.2 601C789.3 601 773.7 601 758 601C742.3 601 726.7 601 710.8 601C695 601 679 601 663.2 601C647.3 601 631.7 601 615.8 601C600 601 584 601 568.2 601C552.3 601 536.7 601 521 601C505.3 601 489.7 601 473.8 601C458 601 442 601 426.2 601C410.3 601 394.7 601 379 601C363.3 601 347.7 601 331.8 601C316 601 300 601 284.2 601C268.3 601 252.7 601 236.8 601C221 601 205 601 189.2 601C173.3 601 157.7 601 142 601C126.3 601 110.7 601 94.8 601C79 601 63 601 47.2 601C31.3 601 15.7 601 7.8 601L0 601Z" fill="#cee2fd"></path><path d="M0 557L7.8 556C15.7 555 31.3 553 47.2 547.8C63 542.7 79 534.3 94.8 532.3C110.7 530.3 126.3 534.7 142 539.7C157.7 544.7 173.3 550.3 189.2 549.8C205 549.3 221 542.7 236.8 542C252.7 541.3 268.3 546.7 284.2 545.2C300 543.7 316 535.3 331.8 537C347.7 538.7 363.3 550.3 379 556.5C394.7 562.7 410.3 563.3 426.2 557.5C442 551.7 458 539.3 473.8 537C489.7 534.7 505.3 542.3 521 541.7C536.7 541 552.3 532 568.2 531.5C584 531 600 539 615.8 545.5C631.7 552 647.3 557 663.2 553C679 549 695 536 710.8 531C726.7 526 742.3 529 758 528.8C773.7 528.7 789.3 525.3 805.2 525C821 524.7 837 527.3 852.8 532.5C868.7 537.7 884.3 545.3 892.2 549.2L900 553L900 601L892.2 601C884.3 601 868.7 601 852.8 601C837 601 821 601 805.2 601C789.3 601 773.7 601 758 601C742.3 601 726.7 601 710.8 601C695 601 679 601 663.2 601C647.3 601 631.7 601 615.8 601C600 601 584 601 568.2 601C552.3 601 536.7 601 521 601C505.3 601 489.7 601 473.8 601C458 601 442 601 426.2 601C410.3 601 394.7 601 379 601C363.3 601 347.7 601 331.8 601C316 601 300 601 284.2 601C268.3 601 252.7 601 236.8 601C221 601 205 601 189.2 601C173.3 601 157.7 601 142 601C126.3 601 110.7 601 94.8 601C79 601 63 601 47.2 601C31.3 601 15.7 601 7.8 601L0 601Z" fill="#e7f0fe"></path><path d="M0 552L7.8 555.8C15.7 559.7 31.3 567.3 47.2 569.5C63 571.7 79 568.3 94.8 568.3C110.7 568.3 126.3 571.7 142 569.7C157.7 567.7 173.3 560.3 189.2 558.2C205 556 221 559 236.8 562.2C252.7 565.3 268.3 568.7 284.2 569.8C300 571 316 570 331.8 569C347.7 568 363.3 567 379 564.8C394.7 562.7 410.3 559.3 426.2 557.5C442 555.7 458 555.3 473.8 557.8C489.7 560.3 505.3 565.7 521 564.8C536.7 564 552.3 557 568.2 557.5C584 558 600 566 615.8 570.3C631.7 574.7 647.3 575.3 663.2 573C679 570.7 695 565.3 710.8 565C726.7 564.7 742.3 569.3 758 568.7C773.7 568 789.3 562 805.2 561C821 560 837 564 852.8 563.2C868.7 562.3 884.3 556.7 892.2 553.8L900 551L900 601L892.2 601C884.3 601 868.7 601 852.8 601C837 601 821 601 805.2 601C789.3 601 773.7 601 758 601C742.3 601 726.7 601 710.8 601C695 601 679 601 663.2 601C647.3 601 631.7 601 615.8 601C600 601 584 601 568.2 601C552.3 601 536.7 601 521 601C505.3 601 489.7 601 473.8 601C458 601 442 601 426.2 601C410.3 601 394.7 601 379 601C363.3 601 347.7 601 331.8 601C316 601 300 601 284.2 601C268.3 601 252.7 601 236.8 601C221 601 205 601 189.2 601C173.3 601 157.7 601 142 601C126.3 601 110.7 601 94.8 601C79 601 63 601 47.2 601C31.3 601 15.7 601 7.8 601L0 601Z" fill="#ffffff"></path></svg>